<?xml version="1.0" encoding="utf-8"?>
<!-- Generator: Adobe Illustrator 17.0.0, SVG Export Plug-In . SVG Version: 6.00 Build 0)  -->
<!DOCTYPE svg PUBLIC "-//W3C//DTD SVG 1.1//EN" "http://www.w3.org/Graphics/SVG/1.1/DTD/svg11.dtd">
<svg version="1.1" id="Layer_1" xmlns="http://www.w3.org/2000/svg" xmlns:xlink="http://www.w3.org/1999/xlink" x="0px" y="0px"
	 width="500px" height="103.604px" viewBox="0 0 500 103.604" enable-background="new 0 0 500 103.604" xml:space="preserve">
<g>
	<path fill="#FFFFFF" d="M30.846,103.604C15.228,103.604,0,92.409,0,67.029c0-25.38,15.228-36.442,30.846-36.442
		c7.679,0,13.666,1.952,17.961,4.816l-4.685,10.282c-2.863-2.083-7.159-3.384-11.454-3.384c-9.371,0-17.961,7.419-17.961,24.599
		s8.851,24.73,17.961,24.73c4.295,0,8.59-1.301,11.454-3.383l4.685,10.543C44.383,101.781,38.525,103.604,30.846,103.604z"/>
	<path fill="#FFFFFF" d="M87.848,103.604c-19.913,0-30.846-15.748-30.846-36.575c0-20.825,10.933-36.442,30.846-36.442
		c19.914,0,30.847,15.618,30.847,36.442C118.695,87.855,107.762,103.604,87.848,103.604z M87.848,41.91
		c-11.063,0-16.529,9.892-16.529,24.989c0,15.099,5.466,25.12,16.529,25.12c11.063,0,16.53-10.022,16.53-25.12
		C104.377,51.801,98.911,41.91,87.848,41.91z"/>
	<path fill="#FFFFFF" d="M141.073,19.263c-4.686,0-8.461-3.644-8.461-8.069s3.775-8.069,8.461-8.069c4.685,0,8.46,3.644,8.46,8.069
		S145.758,19.263,141.073,19.263z M133.914,102.171V32.018h14.317v70.154H133.914z"/>
	<path fill="#FFFFFF" d="M207.838,102.171V55.315c0-8.2-4.946-13.276-14.707-13.276c-5.207,0-10.022,0.911-12.886,2.083v58.049
		h-14.186V35.532c7.028-2.863,16.009-4.945,26.942-4.945c19.654,0,29.154,8.589,29.154,23.427v48.157H207.838z"/>
	<path fill="#FFFFFF" d="M263.143,103.604c-9.11,0-18.091-2.213-23.557-4.946V0h14.187v33.84c3.383-1.562,8.851-2.863,13.666-2.863
		c18.09,0,30.324,13.015,30.324,34.49C297.764,91.888,284.099,103.604,263.143,103.604z M264.966,42.039
		c-3.904,0-8.459,0.911-11.192,2.343v46.075c2.082,0.911,6.117,1.822,10.152,1.822c11.323,0,19.653-7.811,19.653-25.772
		C283.578,51.151,276.289,42.039,264.966,42.039z"/>
	<path fill="#FFFFFF" d="M339.667,103.604c-20.174,0-30.326-8.201-30.326-21.996c0-19.524,20.824-23.038,42.039-24.21v-4.425
		c0-8.85-5.858-11.974-14.837-11.974c-6.638,0-14.708,2.083-19.393,4.295l-3.645-9.761c5.598-2.473,15.099-4.945,24.47-4.945
		c16.788,0,26.941,6.507,26.941,23.818v44.253C359.841,101.391,349.558,103.604,339.667,103.604z M351.38,66.899
		c-14.316,0.781-28.634,1.952-28.634,14.447c0,7.42,5.727,11.975,16.531,11.975c4.554,0,9.891-0.781,12.104-1.822V66.899z"/>
	<path fill="#FFFFFF" d="M400.179,103.604c-8.199,0-16.788-2.213-21.866-4.946l4.816-10.933c3.645,2.213,11.325,4.556,16.66,4.556
		c7.68,0,12.755-3.776,12.755-9.631c0-6.379-5.337-8.851-12.494-11.454c-9.372-3.516-19.914-7.811-19.914-20.956
		c0-11.583,8.982-19.653,24.599-19.653c8.461,0,15.489,2.082,20.433,4.945l-4.423,9.892c-3.124-1.952-9.372-4.165-14.449-4.165
		c-7.419,0-11.583,3.904-11.583,8.981c0,6.378,5.206,8.59,12.104,11.193c9.762,3.644,20.564,7.679,20.564,21.346
		C427.381,95.403,417.749,103.604,400.179,103.604z"/>
	<path fill="#FFFFFF" d="M499.869,66.769l-46.595,6.508c1.432,12.624,9.631,19.003,21.475,19.003c7.028,0,14.578-1.694,19.393-4.297
		l4.166,10.673c-5.467,2.862-14.839,4.946-24.47,4.946c-22.125,0-34.49-14.187-34.49-36.575c0-21.475,11.975-36.442,31.628-36.442
		C489.196,30.587,500,42.56,500,61.433C500,63.124,500,64.947,499.869,66.769z M470.716,40.998c-10.935,0-18.092,8.33-18.353,22.907
		l33.971-4.686C486.203,46.986,480.086,40.998,470.716,40.998z"/>
</g>
</svg>
